<svg width="32" height="32" viewBox="0 0 32 32" fill="none" xmlns="http://www.w3.org/2000/svg">
  <defs>
    <linearGradient id="bgGradient" x1="0%" y1="0%" x2="100%" y2="100%">
      <stop offset="0%" style="stop-color:#8B5CF6;stop-opacity:1" />
      <stop offset="50%" style="stop-color:#6366F1;stop-opacity:1" />
      <stop offset="100%" style="stop-color:#4F46E5;stop-opacity:1" />
    </linearGradient>
  </defs>
  <!-- Background rounded rectangle -->
  <rect x="2" y="2" width="28" height="28" rx="6" ry="6" fill="url(#bgGradient)"/>
  
  <!-- Letter H -->
  <rect x="6" y="8" width="2.5" height="16" fill="#FFFFFF"/>
  <rect x="6" y="15" width="6" height="2" fill="#FFFFFF"/>
  <rect x="9.5" y="8" width="2.5" height="16" fill="#FFFFFF"/>
  
  <!-- Letter C -->
  <path d="M18 8 C22 8 24 10 24 14 L21.5 14 C21.5 11.5 20.5 10.5 18 10.5 C16.5 10.5 15.5 11.5 15.5 16 C15.5 20.5 16.5 21.5 18 21.5 C20.5 21.5 21.5 20.5 21.5 18 L24 18 C24 22 22 24 18 24 C14 24 13 21 13 16 C13 11 14 8 18 8 Z" fill="#FFFFFF"/>
</svg>